<?xml version="1.0" encoding="UTF-8" standalone="no"?>
<svg
   viewBox="0 0 261.76 226.69"
   version="1.1"
   id="svg6"
   sodipodi:docname="logo.svg"
   inkscape:version="1.2.1 (9c6d41e410, 2022-07-14)"
   xmlns:inkscape="http://www.inkscape.org/namespaces/inkscape"
   xmlns:sodipodi="http://sodipodi.sourceforge.net/DTD/sodipodi-0.dtd"
   xmlns="http://www.w3.org/2000/svg"
   xmlns:svg="http://www.w3.org/2000/svg">
  <defs
     id="defs10" />
  <sodipodi:namedview
     id="namedview8"
     pagecolor="#505050"
     bordercolor="#eeeeee"
     borderopacity="1"
     inkscape:showpageshadow="0"
     inkscape:pageopacity="0"
     inkscape:pagecheckerboard="0"
     inkscape:deskcolor="#505050"
     showgrid="false"
     inkscape:zoom="1.316331"
     inkscape:cx="30.007651"
     inkscape:cy="69.891238"
     inkscape:window-width="1810"
     inkscape:window-height="1046"
     inkscape:window-x="99"
     inkscape:window-y="-11"
     inkscape:window-maximized="1"
     inkscape:current-layer="svg6" />
  <g
     id="g181"
     transform="matrix(1.3753816,0,0,1.3753816,266.79754,-55.143946)">
    <path
       sodipodi:nodetypes="cscccccccccccsscccccccccccscscccccccccccsc"
       inkscape:connector-curvature="0"
       id="path1530-3"
       d="m -181.27043,40.047597 v 41.199217 c 0,5.063293 1.12214,9.815497 3.36718,14.257814 2.29281,4.442321 5.54066,8.121382 9.74414,11.035152 l -13.11132,31.38281 h 9.0996 l -9.0996,20.56252 h 21.78125 c 1.38523,6.06637 3.89315,11.60749 7.52343,16.62304 3.67805,5.06328 8.14409,9.24314 13.39844,12.53904 0.90757,2.57941 2.15026,4.91977 3.72657,7.02149 1.62407,2.10176 3.48614,3.89424 5.58789,5.37502 2.1495,1.52851 4.48983,2.69771 7.02148,3.50974 2.53164,0.85981 5.1601,1.28909 7.88281,1.28909 h 30.953117 c 2.722734,0 5.324712,-0.42928 7.808617,-1.28909 2.531641,-0.81203 4.849399,-1.98123 6.951156,-3.50974 2.149493,-1.48078 4.011591,-3.27326 5.587881,-5.37502 1.6241,-2.10172 2.889335,-4.44208 3.796875,-7.02149 5.349884,-3.2959 9.840416,-7.45127 13.470728,-12.46678 3.630274,-5.0155 6.13818,-10.58116 7.523414,-16.6953 h 21.781267 l -9.099629,-20.56252 h 9.099629 l -13.111333,-31.38281 c 4.203477,-2.91377 7.42681,-6.592831 9.671887,-11.035152 2.292813,-4.442317 3.439446,-9.194521 3.439446,-14.257814 V 40.047597 H -37.11029 c -2.866016,0 -5.660107,0.382216 -8.382803,1.146486 -2.674923,0.764269 -5.207358,1.86387 -7.595717,3.296874 -2.340548,1.433008 -4.488793,3.176493 -6.447269,5.230469 -1.910665,2.006211 -3.535559,4.274997 -4.873021,6.806638 l -24.146494,-16.480467 -10.316399,7.666016 -10.318357,-7.666016 -24.14649,16.480467 c -1.33747,-2.483875 -2.98492,-4.730116 -4.94336,-6.736327 -1.95844,-2.053977 -4.13119,-3.797462 -6.51953,-5.23047 -2.34058,-1.433004 -4.87299,-2.53065 -7.5957,-3.29492 -2.67495,-0.812035 -5.44649,-1.21875 -8.3125,-1.21875 z"
       style="font-style:normal;font-variant:normal;font-weight:normal;font-stretch:normal;font-size:38.8249px;line-height:1.25;font-family:'David Libre';-inkscape-font-specification:'David Libre';letter-spacing:0px;word-spacing:0px;fill:#221c24;fill-opacity:1;stroke:none;stroke-width:3.6685" />
    <path
       id="path1535-5"
       style="font-style:normal;font-variant:normal;font-weight:normal;font-stretch:normal;font-size:38.8249px;line-height:1.25;font-family:'David Libre';-inkscape-font-specification:'David Libre';letter-spacing:0px;word-spacing:0px;fill:#dedbe3;fill-opacity:1;stroke:none;stroke-width:3.6685"
       d="m -16.41183,81.309742 q 0,7.594931 -3.439215,14.258412 -3.367563,6.663476 -9.67279,11.034146 l 13.112005,31.38283 h -9.099591 l 9.099591,20.56364 h -21.781693 q -2.07786,9.17124 -7.523282,16.69452 -5.445423,7.52329 -13.470259,12.46716 -1.361356,3.86912 -3.797466,7.02173 -2.364461,3.15261 -5.588723,5.37377 -3.152614,2.29281 -6.950083,3.51087 -3.725812,1.2897 -7.809883,1.2897 h -30.952931 q -4.08407,0 -7.88153,-1.2897 -3.79747,-1.21806 -7.02173,-3.51087 -3.15262,-2.22116 -5.58873,-5.37377 -2.36446,-3.15261 -3.72581,-7.02173 -7.88154,-4.94387 -13.39861,-12.5388 -5.44542,-7.52329 -7.52328,-16.62288 h -21.7817 l 9.09959,-20.56364 h -9.09959 l 13.11201,-31.38283 q -6.30523,-4.37067 -9.74444,-11.034146 -3.36757,-6.663481 -3.36757,-14.258412 V 40.110816 h 20.56364 q 4.29902,0 8.31144,1.218055 4.08406,1.146403 7.59493,3.295914 3.58251,2.149509 6.52018,5.23047 2.93766,3.009316 4.94387,6.735129 l 24.14615,-16.479568 10.317645,7.666583 10.317645,-7.666583 24.146155,16.479568 q 2.006207,-3.797465 4.872219,-6.806778 2.937664,-3.080965 6.448528,-5.230473 3.582516,-2.149508 7.594934,-3.295914 4.084067,-1.146403 8.383087,-1.146403 h 20.635287 z m -37.544761,-3.654164 27.227116,-27.22712 h -10.317642 q -4.227372,0 -8.024837,1.647957 -3.725817,1.576309 -6.520176,4.370669 -2.794364,2.794363 -4.442321,6.591828 -1.576305,3.725817 -1.576305,7.953185 v 2.866012 q -0.859805,-0.788153 -1.719609,-1.433004 -0.859805,-0.716504 -1.862907,-1.361356 -6.87843,-4.585622 -13.61356,-9.099591 -6.735129,-4.513969 -13.685208,-9.027938 l -10.317645,7.809883 -10.317645,-7.809883 -27.29877,18.127529 q -2.07785,1.361356 -3.58251,2.79436 v -2.866012 q 0,-4.299016 -1.64796,-8.024833 -1.5763,-3.725817 -4.37067,-6.52018 -2.79436,-2.79436 -6.59183,-4.370669 -3.72581,-1.647957 -8.02483,-1.647957 h -10.246 l 27.22712,27.22712 q -1.5763,2.006207 -2.79436,4.227367 -1.14641,2.221161 -2.07786,4.585618 h 21.42344 q 3.22427,0 6.23358,1.074754 3.08096,1.074758 5.44543,3.295914 3.08096,2.722712 4.65727,6.090278 1.64795,3.367561 1.64795,7.523281 v 42.56028 q 4.51397,-3.86911 10.317645,-3.86911 5.803676,0 10.317645,3.86911 v -42.56028 q 0,-3.65416 1.433008,-6.950078 1.433004,-3.295914 3.869114,-5.732024 2.436113,-2.436113 5.732024,-3.869117 3.295914,-1.433008 6.950082,-1.433008 h 21.42344 q -0.931453,-2.364457 -2.221157,-4.513969 -1.289707,-2.149508 -2.651062,-4.299016 z m 22.068295,70.575552 -10.245994,-20.56364 h 10.245994 L -47.149813,91.197485 q -1.003102,0.358262 -4.012415,0.501551 -2.937664,0.07166 -6.52018,0.07166 -1.934559,0 -3.869118,0 -1.934558,-0.07166 -3.654164,-0.07166 -1.719606,0 -3.080961,0 -1.36136,-0.07166 -2.221161,-0.07166 -2.651062,0 -5.015524,1.003102 -2.292808,1.003105 -4.084066,2.794363 -1.719606,1.719606 -2.722712,4.084067 -1.003105,2.292812 -1.003105,4.943872 v 47.21756 l 10.819196,9.6728 q 3.439215,-1.57631 6.161927,-4.01242 2.794363,-2.43611 4.728922,-5.44542 1.934559,-3.08097 2.93766,-6.59183 1.074758,-3.51087 1.074758,-7.30834 v -15.47646 h 5.158821 q 2.149508,0 4.012418,0.8598 1.862907,0.78816 3.224262,2.22116 1.433008,1.36136 2.221161,3.22427 0.859804,1.86291 0.859804,4.01241 v 15.40482 z m -133.842774,0 h 10.24599 v -15.40482 q 0,-2.1495 0.78815,-4.01241 0.85981,-1.86291 2.22117,-3.22427 1.433,-1.433 3.29591,-2.22116 1.86291,-0.8598 4.01242,-0.8598 h 5.15882 v 15.47646 q 0,3.72582 1.07475,7.23668 1.07476,3.51087 3.00932,6.59183 1.93455,3.00932 4.65727,5.51708 2.79436,2.43611 6.16192,4.01242 l 10.8192,-9.6728 v -47.21755 q 0,-2.65106 -1.0031,-4.94387 -1.00311,-2.364462 -2.79437,-4.084067 -1.7196,-1.791258 -4.08406,-2.794364 -2.29281,-1.003101 -4.94388,-1.003101 -3.08096,0 -6.09027,0.07166 -3.00932,0.07166 -6.09028,0.07166 -0.78815,0 -2.43611,0 -1.57631,0 -3.29591,-0.07166 -1.71961,-0.07166 -3.29592,-0.143281 -1.50465,-0.14332 -2.14951,-0.358262 l -15.26151,36.470005 h 10.24599 z m 83.544257,46.35775 q 1.218055,0 2.579411,-0.35826 1.361355,-0.35827 2.722711,-1.00311 1.361355,-0.64485 2.507762,-1.50466 1.218055,-0.78815 2.006207,-1.64795 2.149512,-2.29281 3.295914,-5.01552 1.146407,-2.65107 1.146407,-5.87533 0,-2.57941 -0.788153,-4.65727 -0.716504,-2.07786 -2.006211,-3.79747 -1.289703,-1.79125 -2.93766,-3.36756 -1.576309,-1.57631 -3.295915,-3.08096 l -11.5357,-10.31763 q -1.074754,-1.00311 -2.22116,-2.00622 -1.074754,-1.0031 -2.292809,-1.79125 -1.218055,-0.8598 -2.651063,-1.36136 -1.361355,-0.5732 -2.93766,-0.5732 -1.862908,0 -3.295918,0.50155 -1.36135,0.4299 -2.57941,1.21806 -1.1464,0.78815 -2.29281,1.8629 -1.07475,1.00311 -2.36446,2.14952 l -10.31764,9.24288 q -1.86291,1.64796 -3.72582,3.29592 -1.79126,1.57631 -3.29591,3.36756 -1.43301,1.79126 -2.36446,3.94077 -0.85981,2.14951 -0.85981,4.94387 0,2.86601 1.07476,5.66037 1.1464,2.86602 3.00931,5.08718 1.93456,2.29281 4.51397,3.65416 2.65106,1.43301 5.66038,1.43301 z m -68.139447,-46.21445 q 0,4.37067 1.07476,8.59804 1.07476,4.22737 3.08096,8.02483 2.07786,3.79747 4.87222,7.09338 2.86601,3.29591 6.44853,5.80368 0.35826,-3.58252 1.71961,-6.87843 1.433,-3.36757 3.94077,-6.01863 -3.29592,-1.7196 -6.16193,-4.37067 -2.79436,-2.72271 -4.94387,-5.94697 -2.07786,-3.29592 -3.36757,-6.95008 -1.21805,-3.65417 -1.433,-7.37998 -0.0717,-1.36136 -0.14332,-2.72272 0,-1.36135 0,-2.72271 0,-1.86291 0,-3.58251 0.0717,-1.79126 0.0717,-3.65417 -2.07786,0.14328 -3.65417,1.57631 -1.50466,1.36135 -1.50466,3.58251 z m 103.033146,-15.54812 q 0,-2.07786 -1.576305,-3.58251 -1.504656,-1.57631 -3.582516,-1.57631 v 6.37688 q 0,1.64796 0,3.22426 0,1.50466 -0.07166,3.08097 -0.143282,3.72581 -1.433004,7.37998 -1.289707,3.65416 -3.439215,6.95008 -2.07786,3.22426 -4.943872,5.94697 -2.794359,2.65107 -6.090274,4.37067 2.507758,2.57941 3.940766,5.94698 1.433004,3.29591 1.719606,6.95008 3.654168,-2.57941 6.52018,-5.87533 2.866012,-3.29591 4.800571,-7.09338 2.006207,-3.79747 3.080961,-8.02483 1.074754,-4.22737 1.074754,-8.66969 z M -70.507812,96.786208 q 1.576305,0 2.937661,0.644852 1.433008,0.573203 2.507762,1.576309 1.074754,1.003101 1.647957,2.436111 0.644852,1.43301 0.644852,3.00931 v 10.31765 q 0,1.64795 -0.644852,3.08096 -0.573203,1.36135 -1.647957,2.43611 -1.003106,1.0031 -2.43611,1.64795 -1.433008,0.57321 -3.009313,0.57321 -1.576308,0 -3.009312,-0.57321 -1.361356,-0.64485 -2.436114,-1.7196 -1.074754,-1.07475 -1.719606,-2.43611 -0.573203,-1.43301 -0.573203,-3.00931 v -10.31765 q 0,-1.5763 0.573203,-2.93766 0.644852,-1.43301 1.719606,-2.436113 1.074758,-1.074754 2.436114,-1.647957 1.433004,-0.644852 3.009312,-0.644852 z m -56.603748,25.722462 q -1.64795,0 -3.08096,-0.57321 -1.36136,-0.64485 -2.43611,-1.64795 -1.00311,-1.07476 -1.64796,-2.43611 -0.5732,-1.43301 -0.5732,-3.08096 v -10.31765 q 0,-1.5763 0.5732,-3.00931 0.64485,-1.43301 1.71961,-2.436111 1.07476,-1.003106 2.43611,-1.576309 1.43301,-0.644852 3.00931,-0.644852 1.57631,0 2.93767,0.644852 1.433,0.573203 2.43611,1.647957 1.07475,1.003103 1.64796,2.436113 0.64485,1.36136 0.64485,2.93766 v 10.31765 q 0,1.5763 -0.64485,3.00931 -0.57321,1.36136 -1.57631,2.43611 -1.00311,1.07475 -2.43611,1.7196 -1.43301,0.57321 -3.00932,0.57321 z m 39.909227,46.35775 q 2.722711,0 4.65727,1.8629 1.934555,1.86292 1.934555,4.65727 0,1.79126 -0.788152,3.00932 -0.716504,1.2897 -1.862907,2.22116 -1.146406,0.93145 -2.57941,1.64796 -1.361356,0.78815 -2.651063,1.50465 l -5.158821,3.00931 V 175.6732 q 0,-2.79436 1.791258,-4.80057 1.791254,-2.00621 4.65727,-2.00621 z m -23.214697,0 q 2.86601,0 4.65727,2.00621 1.79125,2.00621 1.79125,4.80057 v 11.10579 l -5.15882,-3.00931 q -1.2897,-0.7165 -2.72271,-1.50465 -1.36136,-0.71651 -2.50776,-1.64796 -1.14641,-0.93146 -1.93456,-2.22116 -0.7165,-1.21806 -0.7165,-3.00932 0,-2.79435 1.93456,-4.65727 1.93455,-1.8629 4.65727,-1.8629 z"
       inkscape:connector-curvature="0" />
  </g>
</svg>
